<svg xmlns="http://www.w3.org/2000/svg" width="110" height="92" viewBox="0 0 110 92">
  <circle cx="50.05" cy="45" r="40.14" fill="none" stroke="#1a61db" stroke-width="4" />
  <path fill="#ff2a2a" stroke="#ff2a2a" stroke-width="1" d="M60 35.21a228 228 0 01-13.5 4.81c-7.8 2.44-29.15 9.06-42.05 17.4l1.08.42c7.86-4.44 12.97-5.83 17.88-7.38 5.34-1.68 22.6-5.72 30.42-7.92a137.3 137.3 0 009.35-3.03 72.79 72.79 0 00-3.17-4.3zm5.52 7.86A62.86 62.86 0 0162.53 45c-3.84 2.22-22.56 15-26.82 17.94-4.26 2.94-16.08 14.1-19.56 17.34l-.12 1.32c11.22-10.08 14.74-12.57 19.2-15.96a454.1 454.1 0 0120.82-14.46 699.7 699.7 0 0010.34-6.79c-.27-.46-.61-.91-.87-1.32zm17.29-18.35c-5.47 3.2-14.45 7.21-22.8 10.5a82.23 82.23 0 013.17 4.3c6.57-2.43 14.21-5.83 19.93-9.76-2.73 2.58-12.1 9.56-17.59 13.31.29.47.58.89.87 1.32 8.33-5.57 14.24-9.85 17.5-12.6 4.5-3.77 14.76-12.23 18.66-23.57-6.84 8.7-14.93 13.68-19.74 16.5z"/>
</svg>